<svg width="28" height="28" viewBox="0 0 28 28" fill="none" xmlns="http://www.w3.org/2000/svg">
<path fill-rule="evenodd" clip-rule="evenodd" d="M13.868 16.8163L13.9998 16.8163L14.2944 16.8173C16.5468 16.8322 21.694 17.0597 21.694 20.5485C21.694 24.0143 16.7262 24.2404 14.3296 24.2551L13.4416 24.2551C11.1891 24.2403 6.04086 24.013 6.04086 20.5286C6.04086 17.0584 11.1891 16.8321 13.4416 16.8173L13.7363 16.8163C13.782 16.8163 13.826 16.8163 13.868 16.8163ZM13.868 18.5663C11.096 18.5663 7.79086 18.907 7.79086 20.5286C7.79086 22.1136 10.8987 22.4842 13.6147 22.5052L13.868 22.5061C16.64 22.5061 19.944 22.1666 19.944 20.5485C19.944 18.9105 16.64 18.5663 13.868 18.5663ZM23.1472 16.3429C25.9741 16.7664 26.5679 18.094 26.5679 19.1335C26.5679 19.7682 26.3182 20.9267 24.6499 21.5625C24.5472 21.601 24.4422 21.6197 24.3384 21.6197C23.9861 21.6197 23.6536 21.405 23.5206 21.0562C23.3479 20.6047 23.5754 20.0984 24.0269 19.9269C24.8179 19.6259 24.8179 19.2934 24.8179 19.1335C24.8179 18.6225 24.1681 18.2655 22.8871 18.0742C22.4099 18.0019 22.0797 17.5574 22.1509 17.0779C22.2221 16.5995 22.6654 16.281 23.1472 16.3429ZM5.58399 17.0779C5.65516 17.5574 5.32499 18.0019 4.84783 18.0742C3.56683 18.2655 2.91699 18.6225 2.91699 19.1335C2.91699 19.2934 2.91699 19.6247 3.70916 19.9269C4.16066 20.0984 4.38816 20.6047 4.21549 21.0562C4.08249 21.405 3.74999 21.6197 3.39766 21.6197C3.29383 21.6197 3.18883 21.601 3.08616 21.5625C1.41666 20.9255 1.16699 19.767 1.16699 19.1335C1.16699 18.0952 1.76083 16.7664 4.58883 16.3429C5.07066 16.2822 5.51166 16.5995 5.58399 17.0779ZM13.868 4.66663C16.808 4.66663 19.1985 7.05829 19.1985 9.99713C19.1985 12.936 16.808 15.3276 13.868 15.3276H13.8365C12.4132 15.323 11.0797 14.7653 10.081 13.7573C9.08003 12.7505 8.53286 11.4135 8.53865 9.99363C8.53865 7.05829 10.9292 4.66663 13.868 4.66663ZM13.868 6.41663C11.894 6.41663 10.2887 8.02313 10.2887 9.99713C10.2852 10.9538 10.6515 11.8486 11.3224 12.5241C11.9932 13.1996 12.8869 13.5741 13.8389 13.5776L13.868 14.4526V13.5776C15.842 13.5776 17.4485 11.9723 17.4485 9.99713C17.4485 8.02313 15.842 6.41663 13.868 6.41663ZM21.0885 5.80938C23.1395 6.14654 24.6294 7.90121 24.6294 9.98138C24.6247 12.0755 23.0602 13.8722 20.9894 14.1627C20.9485 14.1685 20.9077 14.1709 20.868 14.1709C20.4387 14.1709 20.0642 13.8547 20.0024 13.4172C19.9359 12.9377 20.2684 12.4955 20.7479 12.429C21.9612 12.2587 22.877 11.2064 22.8794 9.97904C22.8794 8.76221 22.0067 7.73321 20.8039 7.53604C20.3279 7.45788 20.0047 7.00754 20.0829 6.53038C20.1622 6.05321 20.609 5.73354 21.0885 5.80938ZM7.65319 6.53038C7.73136 7.00754 7.40819 7.45788 6.93219 7.53604C5.72936 7.73321 4.85669 8.76221 4.85669 9.98138C4.85903 11.2064 5.77486 12.2599 6.98703 12.429C7.46653 12.4955 7.79903 12.9377 7.73253 13.4172C7.67069 13.8547 7.29619 14.1709 6.86686 14.1709C6.82719 14.1709 6.78636 14.1685 6.74553 14.1627C4.67469 13.8722 3.11136 12.0755 3.10669 9.98371C3.10669 7.90121 4.59653 6.14654 6.64753 5.80938C7.13869 5.73238 7.57386 6.05554 7.65319 6.53038Z" fill="black" fill-opacity="0.6"/>
</svg>
