<svg width="28" height="28" viewBox="0 0 28 28" fill="none" xmlns="http://www.w3.org/2000/svg">
<path fill-rule="evenodd" clip-rule="evenodd" d="M13.7068 1.16699C17.0587 1.16699 20.2087 2.47016 22.5747 4.83733C27.4653 9.72799 27.4653 17.6847 22.5747 22.5753C20.1772 24.974 16.949 26.2433 13.6788 26.2433C11.8962 26.2433 10.1018 25.8665 8.423 25.0895C7.92834 24.8912 7.46517 24.7045 7.13267 24.7045C6.75 24.7068 6.2355 24.8842 5.7385 25.0557C4.71884 25.4057 3.4495 25.842 2.51034 24.9063C1.57467 23.9695 2.00634 22.7037 2.354 21.6852C2.5255 21.1835 2.70167 20.6655 2.70167 20.2735C2.70167 19.9515 2.5465 19.5408 2.3085 18.9493C0.123335 14.2302 1.13367 8.54266 4.84017 4.83849C7.20617 2.47133 10.355 1.16699 13.7068 1.16699ZM13.708 2.91699C10.8228 2.91699 8.11267 4.03933 6.07684 6.07633C2.88717 9.26366 2.01917 14.1578 3.915 18.2563C4.188 18.9318 4.45167 19.5898 4.45167 20.2735C4.45167 20.956 4.21717 21.6432 4.01067 22.2498C3.84034 22.7492 3.5825 23.5028 3.74817 23.6685C3.91034 23.8365 4.66867 23.5717 5.16917 23.4002C5.77 23.1948 6.45134 22.9592 7.12684 22.9545C7.8035 22.9545 8.44167 23.2112 9.11717 23.483C13.2553 25.3963 18.1495 24.526 21.338 21.3387C25.545 17.1293 25.545 10.2822 21.338 6.07516C19.301 4.03816 16.592 2.91699 13.708 2.91699ZM18.3127 13.0235C18.9567 13.0235 19.4794 13.545 19.4794 14.1901C19.4794 14.8353 18.9567 15.3568 18.3127 15.3568C17.6687 15.3568 17.1414 14.8353 17.1414 14.1901C17.1414 13.545 17.6582 13.0235 18.3022 13.0235H18.3127ZM13.6358 13.0235C14.2798 13.0235 14.8025 13.545 14.8025 14.1901C14.8025 14.8353 14.2798 15.3568 13.6358 15.3568C12.9918 15.3568 12.4645 14.8353 12.4645 14.1901C12.4645 13.545 12.9801 13.0235 13.6253 13.0235H13.6358ZM8.95839 13.0235C9.60239 13.0235 10.1251 13.545 10.1251 14.1901C10.1251 14.8353 9.60239 15.3568 8.95839 15.3568C8.31439 15.3568 7.78705 14.8353 7.78705 14.1901C7.78705 13.545 8.30389 13.0235 8.94789 13.0235H8.95839Z" fill="black" fill-opacity="0.6"/>
</svg>
