<svg width="28" height="28" viewBox="0 0 28 28" fill="none" xmlns="http://www.w3.org/2000/svg">
<path d="M10.6576 24.2356V20.6683C10.6576 19.7576 11.4012 19.0194 12.3185 19.0194H15.6717C16.1122 19.0194 16.5347 19.1931 16.8462 19.5023C17.1576 19.8116 17.3326 20.231 17.3326 20.6683V24.2356C17.3299 24.6142 17.4794 24.9782 17.7481 25.2469C18.0168 25.5156 18.3824 25.6667 18.7638 25.6667H21.0515C22.1199 25.6695 23.1455 25.25 23.902 24.501C24.6585 23.7519 25.0837 22.7349 25.0837 21.6742V11.5114C25.0837 10.6546 24.7011 9.84186 24.039 9.29215L16.2567 3.12189C14.9029 2.04003 12.9633 2.07496 11.6499 3.20485L4.04517 9.29215C3.35186 9.82565 2.93747 10.6408 2.91699 11.5114V21.6638C2.91699 23.8745 4.72227 25.6667 6.94919 25.6667H9.18466C9.97676 25.6667 10.6205 25.0323 10.6262 24.246L10.6576 24.2356Z" fill="#FFA842"/>
</svg>
