<svg width="22" height="24" viewBox="0 0 22 24" fill="none" xmlns="http://www.w3.org/2000/svg">
<path d="M14.9158 2C18.0246 2 20.0964 4.42887 20.0964 7.91408V16.0849C20.0964 19.5703 18.0244 22 14.9158 22H6.99855C3.89136 22 1.82715 19.5722 1.82715 16.0849V7.91408C1.82715 4.43059 3.89738 2 6.99855 2H14.9158ZM14.9158 3.50383H6.99855C4.67775 3.50383 3.20009 5.2387 3.20009 7.91408V16.0849C3.20009 18.7647 4.6723 20.4962 6.99855 20.4962H14.9158C17.2445 20.4962 18.7234 18.7618 18.7234 16.0849V7.91408C18.7234 5.23744 17.2447 3.50383 14.9158 3.50383ZM15.5664 12.1835L15.6855 12.3086L17.5856 14.4561C17.8495 14.7543 17.8427 15.2303 17.5704 15.5193C17.3229 15.7821 16.9413 15.7998 16.6757 15.5768L16.5997 15.5027L14.6997 13.3553C14.3686 12.9814 13.8305 12.9779 13.4946 13.3269L13.4208 13.4137L11.381 16.1312C10.6594 17.0939 9.36118 17.1971 8.52122 16.3903L8.40962 16.2747L7.59553 15.3648C7.38169 15.1217 7.04067 15.0987 6.80319 15.2949L6.72818 15.3684L5.3287 16.9855C5.06788 17.2869 4.63339 17.2996 4.35824 17.0139C4.1081 16.7542 4.07576 16.3372 4.2679 16.0372L4.33229 15.9509L5.73148 14.3341C6.46808 13.4819 7.68109 13.4365 8.46575 14.1967L8.58012 14.3167L9.3901 15.222C9.62687 15.4865 10.0064 15.4933 10.251 15.2553L10.3201 15.1766L12.3601 12.4589C13.1707 11.3782 14.6302 11.2689 15.5664 12.1835ZM7.83101 6.64124C9.09614 6.64124 10.1229 7.76589 10.1229 9.15164C10.1229 10.5374 9.09614 11.662 7.83101 11.662C6.56593 11.662 5.54003 10.5374 5.54003 9.15164C5.54003 7.76583 6.56593 6.64124 7.83101 6.64124ZM7.83101 8.14507C7.32443 8.14507 6.91297 8.59611 6.91297 9.15164C6.91297 9.70716 7.32443 10.1582 7.83101 10.1582C8.33788 10.1582 8.74996 9.70684 8.74996 9.15164C8.74996 8.59643 8.33788 8.14507 7.83101 8.14507Z" fill="#666666"/>
</svg>
