<svg width="28" height="28" viewBox="0 0 28 28" fill="none" xmlns="http://www.w3.org/2000/svg">
<path fill-rule="evenodd" clip-rule="evenodd" d="M12.0449 23.457C12.6493 24.1301 13.4251 24.5 14.2301 24.5H14.2313C15.0398 24.5 15.8191 24.1301 16.4246 23.4558C16.7489 23.0976 17.3019 23.0685 17.6601 23.3916C18.0194 23.7148 18.0486 24.269 17.7254 24.6271C16.7828 25.6736 15.5426 26.25 14.2313 26.25H14.2289C12.9211 26.2488 11.6833 25.6725 10.7441 24.626C10.4209 24.2678 10.4501 23.7136 10.8094 23.3916C11.1688 23.0673 11.7218 23.0965 12.0449 23.457ZM14.2882 1.16663C19.474 1.16663 22.9577 5.20563 22.9577 8.97746C22.9577 10.9176 23.4512 11.7401 23.975 12.6128C24.493 13.4738 25.0799 14.4515 25.0799 16.2995C24.6727 21.021 19.7435 21.406 14.2882 21.406C8.83286 21.406 3.90253 21.021 3.50002 16.3741C3.49653 14.4515 4.08336 13.4738 4.60136 12.6128L4.78423 12.305C5.23448 11.5311 5.6187 10.6894 5.6187 8.97746C5.6187 5.20563 9.10236 1.16663 14.2882 1.16663ZM14.2882 2.91663C10.2107 2.91663 7.3687 6.11096 7.3687 8.97746C7.3687 11.403 6.69553 12.5241 6.10053 13.5135C5.62336 14.308 5.24653 14.9356 5.24653 16.2995C5.44136 18.4998 6.89386 19.656 14.2882 19.656C21.6417 19.656 23.1397 18.4485 23.3334 16.2236C23.3299 14.9356 22.953 14.308 22.4759 13.5135C21.8809 12.5241 21.2077 11.403 21.2077 8.97746C21.2077 6.11096 18.3657 2.91663 14.2882 2.91663Z" fill="black" fill-opacity="0.6"/>
</svg>
