<svg width="28" height="28" viewBox="0 0 28 28" fill="none" xmlns="http://www.w3.org/2000/svg">
<path fill-rule="evenodd" clip-rule="evenodd" d="M23.147 21.2253C23.147 25.0706 17.8737 25.5151 13.9082 25.5151L13.6244 25.5149C11.0979 25.5088 4.66699 25.3492 4.66699 21.202C4.66699 17.4351 9.7284 16.9317 13.6637 16.9127L14.1919 16.9124C16.7182 16.9185 23.147 17.078 23.147 21.2253ZM13.9082 18.6621C8.93699 18.6621 6.41699 19.5161 6.41699 21.202C6.41699 22.903 8.93699 23.7651 13.9082 23.7651C18.8782 23.7651 21.397 22.9111 21.397 21.2253C21.397 19.5243 18.8782 18.6621 13.9082 18.6621ZM13.9082 2.33301C17.3242 2.33301 20.102 5.11201 20.102 8.52801C20.102 11.944 17.3242 14.7218 13.9082 14.7218H13.8708C10.4618 14.7113 7.70033 11.9312 7.71196 8.52451C7.71196 5.11201 10.491 2.33301 13.9082 2.33301ZM13.9082 3.99901C11.4103 3.99901 9.37797 6.03017 9.37797 8.52801C9.36983 11.0177 11.387 13.0477 13.8743 13.057L13.9082 13.89V13.057C16.4048 13.057 18.436 11.0247 18.436 8.52801C18.436 6.03017 16.4048 3.99901 13.9082 3.99901Z" fill="black" fill-opacity="0.6"/>
</svg>
