<svg width="20" height="20" viewBox="0 0 20 20" fill="none" xmlns="http://www.w3.org/2000/svg">
<path fill-rule="evenodd" clip-rule="evenodd" d="M9.78185 1.66663C14.2568 1.66663 17.8969 5.30663 17.8969 9.78163C17.8969 11.8929 17.0866 13.8185 15.7607 15.2637L18.3697 17.8672C18.6139 18.1114 18.6147 18.5064 18.3705 18.7505C18.2488 18.8739 18.088 18.9347 17.928 18.9347C17.7689 18.9347 17.6088 18.8739 17.4863 18.7522L14.8459 16.1191C13.4569 17.2315 11.6957 17.8975 9.78185 17.8975C5.30685 17.8975 1.66602 14.2566 1.66602 9.78163C1.66602 5.30663 5.30685 1.66663 9.78185 1.66663ZM9.78185 2.91663C5.99602 2.91663 2.91602 5.99579 2.91602 9.78163C2.91602 13.5675 5.99602 16.6475 9.78185 16.6475C13.5668 16.6475 16.6469 13.5675 16.6469 9.78163C16.6469 5.99579 13.5668 2.91663 9.78185 2.91663Z" fill="#1C1C1C" fill-opacity="0.7"/>
</svg>
