<svg width="23" height="21" viewBox="0 0 23 21" fill="none" xmlns="http://www.w3.org/2000/svg">
<g clip-path="url(#clip0_153_659)">
<path d="M21.4362 9.96977V17.4846H17.9517L17.7758 17.5035C14.5408 18.1923 12.3972 18.689 11.3289 18.9966C9.90977 19.4051 9.38077 19.5048 8.41822 19.5636C7.69832 19.6088 6.88067 19.3557 6.50807 19.0092C6.30222 18.8181 6.14812 18.4254 6.08717 17.8164C6.07455 17.6887 6.02454 17.5665 5.9424 17.4625C5.86026 17.3585 5.749 17.2765 5.62027 17.2253C5.33392 17.1119 5.09587 16.9271 4.89692 16.6583C4.71292 16.4126 4.59332 15.9548 4.57147 15.2922C4.56763 15.1704 4.52981 15.0515 4.46159 14.9468C4.39337 14.8421 4.297 14.755 4.18162 14.6937C3.51232 14.3399 3.18112 13.9409 3.11212 13.4726C3.03622 12.9549 3.22022 12.3722 3.70207 11.7086C3.81513 11.5529 3.85723 11.3632 3.81944 11.1796C3.78164 10.9961 3.66692 10.8333 3.49967 10.7258C3.03852 10.4297 2.78552 10.0181 2.72227 9.43427C2.62107 8.50397 3.27082 7.81622 4.74167 7.67867C6.05167 7.56037 7.37432 7.66107 8.64477 7.97582C8.78889 8.01021 8.94076 8.0063 9.08253 7.96455C9.22429 7.9228 9.35005 7.84496 9.445 7.74017C9.53996 7.63538 9.60016 7.50801 9.61852 7.37305C9.63689 7.23808 9.61265 7.10114 9.54867 6.97832C8.97367 5.86742 8.65397 4.95077 8.57922 4.24097C8.48147 3.29912 8.71952 2.61662 9.27612 2.05382C9.69817 1.62752 10.3732 1.38392 10.6262 1.43432C10.9597 1.49942 11.1771 1.67582 11.46 2.29322C11.6267 2.65862 11.7072 2.96942 11.8452 3.69497C11.9775 4.38377 12.0499 4.69457 12.2006 5.10197C12.6548 6.33677 13.7692 7.61672 15.2653 8.49977C16.3139 9.11792 17.4503 9.60193 18.6429 9.93827C18.7174 9.95924 18.7949 9.96986 18.8729 9.96977H21.4362ZM21.4845 18.9158C21.856 18.9252 22.1895 18.8496 22.4689 18.6711C22.8254 18.4433 22.9933 18.0842 22.9968 17.6705L22.9933 9.98132C23.0324 9.57182 22.9002 9.19592 22.5874 8.91662C22.2941 8.65412 21.9112 8.53022 21.5064 8.53862H18.9936C17.9772 8.24291 17.0081 7.82558 16.1117 7.29752C14.9065 6.58562 14.0187 5.56502 13.6795 4.64522C13.5633 4.32812 13.5012 4.06562 13.3839 3.44822C13.2252 2.61977 13.1263 2.23442 12.8986 1.73882C12.4271 0.707719 11.8084 0.203719 10.9551 0.0346693C10.1156 -0.131231 8.89317 0.310819 8.12037 1.09202C7.26362 1.95722 6.88527 3.03977 7.02557 4.37747C7.08537 4.95287 7.26017 5.59652 7.54767 6.31367C6.56583 6.18302 5.5701 6.16328 4.58297 6.25487C2.27492 6.47012 0.978868 7.84247 1.16747 9.57707C1.25027 10.3247 1.54697 10.9599 2.05182 11.4587C1.62747 12.2052 1.45842 12.9434 1.56422 13.6637C1.68612 14.4932 2.19212 15.1841 3.03392 15.7206C3.09947 16.4483 3.28232 17.0289 3.60662 17.4636C3.86215 17.8148 4.19555 18.1131 4.58527 18.3393C4.70947 19.0575 4.97052 19.6193 5.39717 20.0141C6.10442 20.6714 7.36827 21.063 8.52287 20.9916C9.61882 20.9244 10.2674 20.8026 11.7969 20.3616C12.8055 20.0708 14.8939 19.5878 18.0414 18.9158H21.4857H21.4845ZM19.5284 9.64322C19.5287 9.54928 19.5087 9.45621 19.4695 9.36934C19.4303 9.28247 19.3728 9.20351 19.3001 9.13699C19.2275 9.07046 19.1412 9.01768 19.0462 8.98167C18.9511 8.94565 18.8493 8.92712 18.7464 8.92712C18.6437 8.92739 18.542 8.94613 18.4473 8.98227C18.3525 9.01841 18.2665 9.07123 18.1941 9.13773C18.1217 9.20422 18.0643 9.28309 18.0253 9.36982C17.9863 9.45655 17.9664 9.54945 17.9667 9.64322V17.7051C17.9665 17.7989 17.9866 17.8918 18.0258 17.9784C18.0649 18.0651 18.1224 18.1439 18.1949 18.2103C18.2674 18.2767 18.3535 18.3294 18.4484 18.3654C18.5432 18.4014 18.6448 18.42 18.7475 18.4202C18.8502 18.42 18.9519 18.4014 19.0467 18.3654C19.1415 18.3294 19.2276 18.2767 19.3001 18.2103C19.3727 18.1439 19.4301 18.0651 19.4693 17.9784C19.5084 17.8918 19.5285 17.7989 19.5284 17.7051V9.64322Z" fill="black"/>
</g>
<defs>
<clipPath id="clip0_153_659">
<rect width="23" height="21" fill="white" transform="matrix(-1 0 0 1 23 0)"/>
</clipPath>
</defs>
</svg>
